<svg xmlns="http://www.w3.org/2000/svg" width="1957" height="804" viewBox="0 0 1957 804" preserveAspectRatio="xMidYMid meet">
<g transform="translate(0.000000,804.000000) scale(0.100000,-0.100000)">
<g fill="#0a0a0a" stroke="none">
<path d="M8297 5780 c-54 -14 -86 -33 -130 -75 -51 -50 -79 -108 -85 -181 -20
-258 287 -401 481 -224 67 61 89 111 89 201 0 77 -22 135 -71 192 -62 70 -191
110 -284 87z"/>
<path d="M8940 4751 c0 -672 4 -1046 11 -1098 32 -234 143 -399 324 -484 125
-58 208 -72 393 -66 122 4 179 10 255 30 54 13 103 29 109 35 8 8 2 68 -22
211 -18 109 -36 204 -39 210 -5 7 -33 2 -85 -15 -164 -52 -291 -43 -369 27
-88 77 -82 -10 -85 1147 l-2 1022 -245 0 -245 0 0 -1019z"/>
<path d="M6475 5720 c-295 -33 -554 -153 -762 -353 -189 -182 -311 -397 -380
-672 -25 -100 -27 -127 -28 -295 0 -144 4 -204 19 -270 85 -391 323 -708 663
-883 204 -105 334 -137 578 -144 163 -4 191 -3 300 20 527 107 926 513 1021
1037 26 141 23 364 -5 500 -28 132 -51 201 -107 319 -152 322 -427 569 -760
680 -162 55 -377 79 -539 61z m334 -500 c423 -118 673 -580 560 -1035 -27
-108 -96 -246 -163 -326 -98 -120 -255 -221 -402 -260 -114 -31 -290 -31 -397
-1 -304 87 -518 323 -583 641 -22 111 -15 293 16 401 92 326 338 550 655 600
84 13 228 4 314 -20z"/>
<path d="M8138 4993 c-17 -4 -18 -57 -18 -939 l0 -934 253 2 252 3 0 935 0
935 -235 2 c-129 0 -243 -1 -252 -4z"/>
<path d="M6638 2317 c-112 -42 -195 -126 -224 -224 -22 -75 -15 -201 13 -265
89 -198 348 -266 533 -140 220 149 192 497 -50 610 -67 32 -211 41 -272 19z
m215 -149 c22 -11 50 -38 67 -65 100 -158 -14 -361 -192 -340 -70 9 -120 44
-152 108 -47 94 -31 198 39 265 67 65 151 76 238 32z"/>
<path d="M10643 2316 c-265 -86 -325 -450 -102 -621 66 -50 120 -67 219 -69
76 -1 92 2 150 30 106 51 168 125 196 234 30 120 2 237 -78 325 -72 79 -138
109 -252 112 -57 2 -107 -2 -133 -11z m224 -152 c64 -37 98 -102 97 -184 -1
-107 -56 -186 -147 -211 -218 -59 -356 227 -182 379 19 18 48 34 63 38 15 3
32 7 37 9 22 8 93 -8 132 -31z"/>
<path d="M13108 2316 c-154 -55 -241 -176 -241 -336 0 -146 77 -267 206 -326
77 -35 191 -40 274 -11 72 25 173 119 173 162 0 3 -28 19 -61 35 l-61 29 -47
-48 c-36 -37 -57 -50 -89 -56 -136 -23 -246 74 -244 214 0 68 11 98 53 145 81
93 201 97 278 10 l38 -43 67 32 67 32 -29 45 c-52 83 -153 130 -275 130 -40
-1 -88 -7 -109 -14z"/>
<path d="M16607 2306 c-144 -60 -220 -174 -220 -332 0 -70 4 -91 31 -147 51
-110 137 -176 259 -199 75 -14 157 2 212 43 l41 29 0 -30 0 -30 65 0 65 0 0
185 0 185 -160 0 -160 0 0 -60 0 -60 90 0 c50 0 90 -4 90 -9 0 -15 -45 -74
-72 -94 -17 -12 -49 -22 -83 -25 -133 -11 -227 79 -227 219 0 103 65 187 159
207 80 18 141 -3 191 -64 l29 -35 59 24 c32 14 60 30 62 36 6 19 -45 89 -90
121 -88 64 -235 79 -341 36z"/>
<path d="M18230 2321 c-138 -45 -192 -163 -132 -290 22 -47 88 -85 192 -111
110 -27 140 -48 140 -96 0 -32 -4 -37 -46 -55 -75 -34 -153 -8 -181 59 -10 24
-19 32 -31 28 -9 -3 -37 -10 -62 -16 -62 -16 -62 -16 -45 -57 44 -105 129
-157 255 -157 94 0 142 16 196 66 87 80 87 209 0 285 -33 30 -87 51 -212 82
-53 14 -89 51 -80 85 19 77 160 77 194 1 14 -30 13 -29 83 -9 71 21 70 20 54
56 -18 44 -64 90 -111 113 -42 21 -170 30 -214 16z"/>
<path d="M5377 2314 c-4 -4 -7 -157 -7 -341 l0 -333 70 0 70 0 0 215 c0 118 3
215 8 215 4 0 19 -33 34 -73 14 -39 51 -135 81 -212 l54 -140 55 -3 55 -3 76
193 c42 106 82 207 89 223 11 26 13 0 16 -192 l2 -223 70 0 70 0 0 340 0 341
-95 -3 -95 -3 -92 -228 c-50 -125 -93 -225 -96 -223 -4 4 -119 292 -166 416
l-14 35 -89 3 c-49 1 -92 0 -96 -4z"/>
<path d="M7370 1981 l0 -341 174 0 c183 0 219 6 274 47 45 34 65 78 65 143 0
69 -23 116 -68 137 -41 20 -43 25 -12 42 38 20 57 63 57 129 0 75 -26 118 -95
152 -46 23 -62 25 -222 28 l-173 4 0 -341z m325 184 c28 -27 30 -42 14 -79
-15 -32 -56 -46 -130 -46 l-59 0 0 75 0 75 75 0 c67 0 79 -3 100 -25z m20
-270 c33 -33 32 -70 -4 -106 -28 -27 -34 -29 -110 -29 l-81 0 0 80 0 80 85 0
c78 0 88 -2 110 -25z"/>
<path d="M8140 1980 l0 -340 75 0 75 0 -2 338 -3 337 -72 3 -73 3 0 -341z"/>
<path d="M8577 2313 c-4 -3 -7 -156 -7 -340 l0 -333 225 0 225 0 0 65 0 65
-150 0 -150 0 0 275 0 275 -68 0 c-38 0 -72 -3 -75 -7z"/>
<path d="M9297 2314 c-4 -4 -7 -157 -7 -341 l0 -333 230 0 230 0 0 65 0 64
-157 3 -158 3 0 70 0 70 138 3 137 3 0 64 0 65 -135 0 -134 0 -6 33 c-4 18 -5
49 -3 68 l3 34 157 3 156 2 -1 63 -2 62 -221 3 c-121 1 -223 -1 -227 -4z"/>
<path d="M11380 1980 l0 -340 70 0 70 0 0 340 0 340 -70 0 -70 0 0 -340z"/>
<path d="M11800 1980 l0 -340 225 0 225 0 0 65 0 65 -150 0 -150 0 0 275 0
275 -75 0 -75 0 0 -340z"/>
<path d="M13790 1980 l0 -340 70 0 69 0 3 138 3 137 138 3 137 3 0 -141 0
-140 73 0 72 0 -3 340 -3 340 -69 0 -70 0 0 -135 0 -135 -140 0 -140 0 0 135
0 135 -70 0 -70 0 0 -340z"/>
<path d="M14842 2268 c-11 -29 -68 -178 -126 -332 -58 -153 -106 -282 -106
-287 0 -5 33 -9 74 -9 l74 0 24 65 23 66 134 -3 135 -3 20 -62 20 -63 78 0
c43 0 78 4 78 8 0 4 -27 80 -61 167 -33 88 -83 221 -110 295 -27 74 -56 151
-63 170 l-14 35 -80 3 -80 3 -20 -53z m142 -243 c20 -61 36 -113 36 -118 0 -8
-154 -10 -161 -2 -3 2 13 59 35 124 23 66 44 117 47 113 4 -4 23 -57 43 -117z"/>
<path d="M15520 1980 l0 -340 75 0 75 0 2 213 3 212 141 -210 141 -210 74 -3
74 -3 -1 338 0 338 -72 3 -72 3 -1 -213 c0 -150 -3 -209 -10 -198 -6 8 -70
103 -142 210 l-132 195 -77 3 -78 3 0 -341z"/>
<path d="M17350 1980 l0 -340 230 0 230 0 0 65 0 64 -157 3 -158 3 0 70 0 70
138 3 137 3 0 64 0 65 -140 0 -141 0 3 68 3 67 158 3 158 3 -3 62 -3 62 -227
3 -228 2 0 -340z"/>
</g>
<g fill="#F0A528" stroke="none">
<path d="M2765 6612 c-21 -13 -66 -80 -147 -218 -64 -109 -176 -300 -248 -424
-683 -1164 -983 -1728 -1104 -2079 -137 -396 -164 -820 -75 -1173 184 -727
763 -1230 1486 -1290 396 -33 821 93 1151 342 43 32 129 111 191 175 220 230
363 500 438 830 34 150 43 449 19 640 -58 474 -242 898 -833 1925 -293 507
-720 1219 -752 1253 -35 36 -86 44 -126 19z m254 -701 c421 -691 577 -956 755
-1280 315 -571 439 -891 492 -1267 21 -152 14 -396 -14 -529 -108 -498 -449
-904 -920 -1093 -355 -143 -772 -132 -1121 29 -416 192 -724 594 -821 1068
-74 366 -25 717 161 1151 130 304 470 915 1019 1835 112 187 213 357 224 378
26 46 -1 80 225 -292z"/>
<path d="M3911 3707 c-14 -6 -34 -27 -45 -46 -17 -30 -18 -39 -8 -75 143 -497
44 -941 -280 -1252 -99 -95 -190 -158 -303 -209 -52 -23 -102 -48 -111 -56
-57 -47 -48 -130 19 -163 47 -22 76 -16 204 45 250 119 463 327 590 575 66
128 97 218 122 346 48 247 34 484 -44 751 -24 83 -81 116 -144 84z"/>
<path d="M8308 5783 c7 -3 16 -2 19 1 4 3 -2 6 -13 5 -11 0 -14 -3 -6 -6z"/>
<path d="M8408 5783 c6 -2 18 -2 25 0 6 3 1 5 -13 5 -14 0 -19 -2 -12 -5z"/>
<path d="M12615 5762 c-107 -52 -169 -147 -169 -262 0 -164 157 -305 320 -286
152 18 268 142 268 286 -1 162 -118 281 -284 288 -66 3 -82 -1 -135 -26z"/>
<path d="M9182 5773 l248 -3 3 -1008 2 -1007 3 1013 2 1012 -252 -2 -253 -3
247 -2z"/>
<path d="M15460 4460 l0 -1320 250 0 249 0 3 603 3 602 23 46 c35 70 84 122
149 156 114 61 259 66 369 14 72 -35 105 -68 141 -146 l28 -60 5 -605 5 -605
248 -3 247 -2 0 642 c0 737 -2 752 -82 914 -52 108 -159 222 -253 271 -122 64
-286 92 -426 73 -165 -22 -287 -81 -395 -188 l-64 -63 -2 493 -3 493 -247 3
-248 2 0 -1320z"/>
<path d="M8179 5723 c-13 -16 -12 -17 4 -4 9 7 17 15 17 17 0 8 -8 3 -21 -13z"/>
<path d="M6488 5723 c12 -2 32 -2 45 0 12 2 2 4 -23 4 -25 0 -35 -2 -22 -4z"/>
<path d="M6688 5723 c12 -2 30 -2 40 0 9 3 -1 5 -23 4 -22 0 -30 -2 -17 -4z"/>
<path d="M8570 5705 c13 -14 26 -25 28 -25 3 0 -5 11 -18 25 -13 14 -26 25
-28 25 -3 0 5 -11 18 -25z"/>
<path d="M6408 5713 c6 -2 18 -2 25 0 6 3 1 5 -13 5 -14 0 -19 -2 -12 -5z"/>
<path d="M6783 5713 c9 -2 23 -2 30 0 6 3 -1 5 -18 5 -16 0 -22 -2 -12 -5z"/>
<path d="M6348 5703 c7 -3 16 -2 19 1 4 3 -2 6 -13 5 -11 0 -14 -3 -6 -6z"/>
<path d="M6848 5703 c7 -3 16 -2 19 1 4 3 -2 6 -13 5 -11 0 -14 -3 -6 -6z"/>
<path d="M6898 5693 c7 -3 16 -2 19 1 4 3 -2 6 -13 5 -11 0 -14 -3 -6 -6z"/>
<path d="M10350 4420 l0 -1280 255 0 255 0 0 475 0 475 173 0 172 0 39 -73
c21 -39 138 -243 259 -452 121 -209 224 -390 230 -402 l10 -23 289 0 c158 0
288 2 288 5 0 6 -537 902 -572 952 -32 48 -34 53 -13 53 28 0 146 59 210 105
94 66 170 156 221 260 67 138 79 194 78 375 0 141 -3 162 -27 233 -92 266
-262 436 -524 526 -136 46 -211 51 -795 51 l-548 0 0 -1280z m1127 789 c60
-12 160 -73 192 -117 49 -69 65 -122 65 -217 0 -72 -5 -100 -22 -139 -47 -104
-113 -160 -231 -196 -56 -18 -93 -20 -342 -20 l-279 0 0 355 0 355 283 -5
c155 -3 305 -10 334 -16z"/>
<path d="M8129 5673 c-13 -16 -12 -17 4 -4 16 13 21 21 13 21 -2 0 -10 -8 -17
-17z"/>
<path d="M8616 5645 c24 -39 24 -40 24 -28 0 6 -9 21 -21 34 l-20 24 17 -30z"/>
<path d="M6050 5610 c-8 -5 -10 -10 -5 -10 6 0 17 5 25 10 8 5 11 10 5 10 -5
0 -17 -5 -25 -10z"/>
<path d="M7131 5616 c10 -9 89 -46 89 -41 0 5 -75 45 -86 45 -4 0 -5 -2 -3 -4z"/>
<path d="M5998 5584 c-38 -20 -36 -28 2 -9 17 9 30 18 30 20 0 7 -1 6 -32 -11z"/>
<path d="M8081 5574 c0 -11 3 -14 6 -6 3 7 2 16 -1 19 -3 4 -6 -2 -5 -13z"/>
<path d="M8652 5540 c0 -19 2 -27 5 -17 2 9 2 25 0 35 -3 9 -5 1 -5 -18z"/>
<path d="M8073 5500 c0 -25 2 -35 4 -22 2 12 2 32 0 45 -2 12 -4 2 -4 -23z"/>
<path d="M7360 5486 c0 -2 8 -10 18 -17 15 -13 16 -12 3 4 -13 16 -21 21 -21
13z"/>
<path d="M8652 5460 c0 -19 2 -27 5 -17 2 9 2 25 0 35 -3 9 -5 1 -5 -18z"/>
<path d="M5794 5448 l-19 -23 23 19 c21 18 27 26 19 26 -2 0 -12 -10 -23 -22z"/>
<path d="M17590 5235 l0 -235 -150 0 -150 0 0 -209 0 -209 43 -6 c23 -3 90 -4
149 -1 l107 4 3 -512 3 -512 28 -80 c16 -44 42 -101 59 -127 65 -103 189 -188
323 -223 85 -23 265 -30 366 -16 78 12 225 54 241 69 6 6 -45 374 -57 409 -3
8 -26 3 -77 -15 -59 -21 -92 -26 -168 -26 -114 -1 -151 16 -190 85 l-25 44 -3
452 -3 452 243 -2 243 -2 3 159 c2 88 1 183 -3 213 l-6 53 -240 0 -239 0 0
235 0 235 -250 0 -250 0 0 -235z"/>
<path d="M7415 5440 c10 -11 20 -20 23 -20 3 0 -3 9 -13 20 -10 11 -20 20 -23
20 -3 0 3 -9 13 -20z"/>
<path d="M5685 5348 l-80 -83 83 80 c76 74 87 85 79 85 -1 0 -38 -37 -82 -82z"/>
<path d="M7510 5355 c35 -36 67 -65 69 -65 3 0 -24 29 -59 65 -35 36 -67 65
-69 65 -3 0 24 -29 59 -65z"/>
<path d="M8626 5373 c-6 -14 -5 -15 5 -6 7 7 10 15 7 18 -3 3 -9 -2 -12 -12z"/>
<path d="M8562 5300 c-114 -107 -272 -106 -399 2 l-38 32 28 -31 c72 -78 193
-110 300 -79 43 12 71 30 114 71 32 30 56 54 53 54 -3 0 -29 -22 -58 -49z"/>
<path d="M7590 5266 c0 -2 8 -10 18 -17 15 -13 16 -12 3 4 -13 16 -21 21 -21
13z"/>
<path d="M5583 5238 c-25 -29 -66 -88 -60 -88 2 0 23 25 45 55 43 58 49 71 15
33z"/>
<path d="M6578 5243 c17 -2 47 -2 65 0 17 2 3 4 -33 4 -36 0 -50 -2 -32 -4z"/>
<path d="M6404 5220 c-65 -17 -214 -83 -214 -95 0 -3 30 10 68 28 82 42 123
56 216 72 45 9 58 13 36 14 -19 0 -67 -9 -106 -19z"/>
<path d="M6723 5230 c41 -7 87 -20 197 -56 8 -3 3 2 -11 10 -36 21 -167 56
-204 55 -22 -1 -17 -4 18 -9z"/>
<path d="M7630 5216 c0 -2 8 -10 18 -17 15 -13 16 -12 3 4 -13 16 -21 21 -21
13z"/>
<path d="M6960 5156 c0 -3 14 -12 30 -21 17 -9 30 -13 30 -11 0 3 -13 12 -30
21 -16 9 -30 13 -30 11z"/>
<path d="M5500 5120 c-6 -11 -8 -20 -6 -20 3 0 10 9 16 20 6 11 8 20 6 20 -3
0 -10 -9 -16 -20z"/>
<path d="M6140 5089 l-35 -30 38 26 c33 24 43 35 34 35 -1 0 -18 -14 -37 -31z"/>
<path d="M7030 5116 c0 -2 8 -10 18 -17 15 -13 16 -12 3 4 -13 16 -21 21 -21
13z"/>
<path d="M5470 5070 c-6 -11 -8 -20 -6 -20 3 0 10 9 16 20 6 11 8 20 6 20 -3
0 -10 -9 -16 -20z"/>
<path d="M7085 5070 c10 -11 20 -20 23 -20 3 0 -3 9 -13 20 -10 11 -20 20 -23
20 -3 0 3 -9 13 -20z"/>
<path d="M6050 5015 c-24 -25 -42 -45 -39 -45 3 0 25 20 49 45 24 25 42 45 39
45 -3 0 -25 -20 -49 -45z"/>
<path d="M7120 5047 c0 -2 15 -16 33 -33 l32 -29 -29 33 c-28 30 -36 37 -36
29z"/>
<path d="M13947 5040 c-204 -25 -397 -129 -528 -284 -73 -85 -158 -254 -191
-376 -19 -72 -23 -110 -23 -250 0 -141 4 -178 24 -255 73 -283 257 -496 509
-594 111 -43 192 -54 345 -49 107 4 147 10 212 31 98 33 188 85 260 152 l55
51 0 -116 c0 -197 -32 -293 -125 -379 -85 -78 -223 -117 -380 -107 -194 13
-350 82 -491 218 l-42 40 -84 -89 c-46 -48 -113 -119 -148 -157 l-65 -68 73
-69 c279 -261 714 -359 1129 -254 58 15 143 47 208 79 226 111 341 248 407
481 l23 80 3 938 3 937 -256 0 -255 0 0 -96 0 -96 -61 56 c-149 135 -381 203
-602 176z m328 -455 c139 -37 231 -112 293 -243 34 -71 36 -83 40 -191 4 -126
-11 -197 -64 -287 -109 -187 -389 -266 -591 -167 -283 139 -339 558 -106 785
103 101 276 142 428 103z"/>
<path d="M8112 4058 l3 -943 258 -3 c141 -1 257 1 257 5 0 5 -115 7 -255 5
l-255 -3 0 935 c0 882 1 935 18 939 13 4 11 5 -6 6 l-22 1 2 -942z"/>
<path d="M8630 4087 l5 -912 3 904 c1 498 -1 908 -5 912 -5 5 -6 -402 -3 -904z"/>
<path d="M12480 4070 l0 -930 255 0 255 0 0 930 0 930 -255 0 -255 0 0 -930z"/>
<path d="M5412 4955 c-17 -37 -14 -45 4 -12 9 16 14 31 11 33 -2 2 -9 -7 -15
-21z"/>
<path d="M7205 4950 c10 -11 20 -20 23 -20 3 0 -3 9 -13 20 -10 11 -20 20 -23
20 -3 0 3 -9 13 -20z"/>
<path d="M5969 4918 c-31 -44 -89 -151 -89 -165 0 -4 18 25 39 64 21 40 50 88
65 108 15 19 25 35 22 35 -3 0 -20 -19 -37 -42z"/>
<path d="M7800 4925 c0 -5 5 -17 10 -25 5 -8 10 -10 10 -5 0 6 -5 17 -10 25
-5 8 -10 11 -10 5z"/>
<path d="M5386 4895 c-9 -26 -7 -32 5 -12 6 10 9 21 6 23 -2 3 -7 -2 -11 -11z"/>
<path d="M7851 4784 c0 -11 3 -14 6 -6 3 7 2 16 -1 19 -3 4 -6 -2 -5 -13z"/>
<path d="M5341 4754 c0 -11 3 -14 6 -6 3 7 2 16 -1 19 -3 4 -6 -2 -5 -13z"/>
<path d="M7320 4755 c0 -5 5 -17 10 -25 5 -8 10 -10 10 -5 0 6 -5 17 -10 25
-5 8 -10 11 -10 5z"/>
<path d="M7861 4744 c0 -11 3 -14 6 -6 3 7 2 16 -1 19 -3 4 -6 -2 -5 -13z"/>
<path d="M5856 4694 c-9 -26 -16 -52 -15 -58 0 -6 9 13 20 43 10 30 17 56 15
58 -2 2 -11 -17 -20 -43z"/>
<path d="M5331 4714 c0 -11 3 -14 6 -6 3 7 2 16 -1 19 -3 4 -6 -2 -5 -13z"/>
<path d="M7871 4704 c0 -11 3 -14 6 -6 3 7 2 16 -1 19 -3 4 -6 -2 -5 -13z"/>
<path d="M5321 4674 c0 -11 3 -14 6 -6 3 7 2 16 -1 19 -3 4 -6 -2 -5 -13z"/>
<path d="M7881 4654 c0 -11 3 -14 6 -6 3 7 2 16 -1 19 -3 4 -6 -2 -5 -13z"/>
<path d="M5312 4630 c0 -14 2 -19 5 -12 2 6 2 18 0 25 -3 6 -5 1 -5 -13z"/>
<path d="M7361 4634 c0 -11 3 -14 6 -6 3 7 2 16 -1 19 -3 4 -6 -2 -5 -13z"/>
<path d="M5831 4604 c0 -11 3 -14 6 -6 3 7 2 16 -1 19 -3 4 -6 -2 -5 -13z"/>
<path d="M7892 4600 c0 -14 2 -19 5 -12 2 6 2 18 0 25 -3 6 -5 1 -5 -13z"/>
<path d="M7372 4590 c0 -14 2 -19 5 -12 2 6 2 18 0 25 -3 6 -5 1 -5 -13z"/>
<path d="M5302 4560 c0 -19 2 -27 5 -17 2 9 2 25 0 35 -3 9 -5 1 -5 -18z"/>
<path d="M5822 4555 c0 -16 2 -22 5 -12 2 9 2 23 0 30 -3 6 -5 -1 -5 -18z"/>
<path d="M7382 4525 c0 -16 2 -22 5 -12 2 9 2 23 0 30 -3 6 -5 -1 -5 -18z"/>
<path d="M7903 4515 c0 -22 2 -30 4 -17 2 12 2 30 0 40 -3 9 -5 -1 -4 -23z"/>
<path d="M5815 4385 c2 -77 8 -153 14 -170 l11 -30 -6 35 c-4 19 -10 96 -14
170 l-8 135 3 -140z"/>
<path d="M5294 4405 c0 -60 1 -84 3 -52 2 32 2 81 0 110 -2 29 -3 3 -3 -58z"/>
<path d="M7393 4405 c0 -38 2 -53 4 -32 2 20 2 52 0 70 -2 17 -4 1 -4 -38z"/>
<path d="M7903 4285 c0 -22 2 -30 4 -17 2 12 2 30 0 40 -3 9 -5 -1 -4 -23z"/>
<path d="M7382 4275 c0 -16 2 -22 5 -12 2 9 2 23 0 30 -3 6 -5 -1 -5 -18z"/>
<path d="M5302 4230 c0 -19 2 -27 5 -17 2 9 2 25 0 35 -3 9 -5 1 -5 -18z"/>
<path d="M7371 4214 c0 -11 3 -14 6 -6 3 7 2 16 -1 19 -3 4 -6 -2 -5 -13z"/>
<path d="M7892 4195 c0 -16 2 -22 5 -12 2 9 2 23 0 30 -3 6 -5 -1 -5 -18z"/>
<path d="M5312 4160 c0 -14 2 -19 5 -12 2 6 2 18 0 25 -3 6 -5 1 -5 -13z"/>
<path d="M5841 4170 c0 -8 4 -24 9 -35 5 -13 9 -14 9 -5 0 8 -4 24 -9 35 -5
13 -9 14 -9 5z"/>
<path d="M7881 4134 c0 -11 3 -14 6 -6 3 7 2 16 -1 19 -3 4 -6 -2 -5 -13z"/>
<path d="M5322 4110 c0 -14 2 -19 5 -12 2 6 2 18 0 25 -3 6 -5 1 -5 -13z"/>
<path d="M5860 4105 c0 -5 5 -17 10 -25 5 -8 10 -10 10 -5 0 6 -5 17 -10 25
-5 8 -10 11 -10 5z"/>
<path d="M5331 4064 c0 -11 3 -14 6 -6 3 7 2 16 -1 19 -3 4 -6 -2 -5 -13z"/>
<path d="M5890 4034 c0 -6 7 -19 16 -30 14 -18 14 -18 3 6 -14 31 -19 36 -19
24z"/>
<path d="M7270 3960 c-6 -11 -8 -20 -6 -20 3 0 10 9 16 20 6 11 8 20 6 20 -3
0 -10 -9 -16 -20z"/>
<path d="M5947 3929 c10 -18 50 -64 88 -104 46 -47 51 -51 14 -11 -30 34 -68
80 -84 104 -32 49 -44 56 -18 11z"/>
<path d="M7224 3893 c-15 -20 -23 -33 -16 -29 13 8 56 66 49 66 -3 0 -17 -17
-33 -37z"/>
<path d="M5380 3915 c0 -5 5 -17 10 -25 5 -8 10 -10 10 -5 0 6 -5 17 -10 25
-5 8 -10 11 -10 5z"/>
<path d="M5410 3846 c0 -11 40 -86 45 -86 3 0 -4 19 -16 43 -23 45 -29 54 -29
43z"/>
<path d="M7150 3805 c-24 -25 -42 -45 -39 -45 3 0 25 20 49 45 24 25 42 45 39
45 -3 0 -25 -20 -49 -45z"/>
<path d="M7761 3793 c-10 -26 -10 -27 4 -9 8 11 15 23 15 28 0 15 -7 8 -19
-19z"/>
<path d="M7079 3743 c-13 -16 -12 -17 4 -4 16 13 21 21 13 21 -2 0 -10 -8 -17
-17z"/>
<path d="M6120 3746 c0 -2 8 -10 18 -17 15 -13 16 -12 3 4 -13 16 -21 21 -21
13z"/>
<path d="M9441 3735 c-1 -34 35 -98 70 -130 l34 -30 -34 37 c-18 20 -42 61
-52 90 -10 29 -18 44 -18 33z"/>
<path d="M5500 3680 c6 -11 13 -20 16 -20 2 0 0 9 -6 20 -6 11 -13 20 -16 20
-2 0 0 -9 6 -20z"/>
<path d="M8942 3670 c0 -19 2 -27 5 -17 2 9 2 25 0 35 -3 9 -5 1 -5 -18z"/>
<path d="M5520 3646 c0 -2 8 -10 18 -17 15 -13 16 -12 3 4 -13 16 -21 21 -21
13z"/>
<path d="M7649 3613 c-13 -16 -12 -17 4 -4 16 13 21 21 13 21 -2 0 -10 -8 -17
-17z"/>
<path d="M8951 3604 c0 -11 3 -14 6 -6 3 7 2 16 -1 19 -3 4 -6 -2 -5 -13z"/>
<path d="M5550 3606 c0 -2 8 -10 18 -17 15 -13 16 -12 3 4 -13 16 -21 21 -21
13z"/>
<path d="M9966 3595 c4 -8 8 -15 10 -15 2 0 4 7 4 15 0 8 -4 15 -10 15 -5 0
-7 -7 -4 -15z"/>
<path d="M6768 3593 c7 -3 16 -2 19 1 4 3 -2 6 -13 5 -11 0 -14 -3 -6 -6z"/>
<path d="M6468 3583 c6 -2 18 -2 25 0 6 3 1 5 -13 5 -14 0 -19 -2 -12 -5z"/>
<path d="M6718 3583 c7 -3 16 -2 19 1 4 3 -2 6 -13 5 -11 0 -14 -3 -6 -6z"/>
<path d="M7614 3568 l-19 -23 23 19 c12 11 22 21 22 23 0 8 -8 2 -26 -19z"/>
<path d="M6563 3573 c20 -2 54 -2 75 0 20 2 3 4 -38 4 -41 0 -58 -2 -37 -4z"/>
<path d="M9557 3569 c7 -7 15 -10 18 -7 3 3 -2 9 -12 12 -14 6 -15 5 -6 -5z"/>
<path d="M5580 3567 c0 -2 15 -16 33 -33 l32 -29 -29 33 c-28 30 -36 37 -36
29z"/>
<path d="M9838 3563 c7 -3 16 -2 19 1 4 3 -2 6 -13 5 -11 0 -14 -3 -6 -6z"/>
<path d="M9982 3550 c0 -14 2 -19 5 -12 2 6 2 18 0 25 -3 6 -5 1 -5 -13z"/>
<path d="M9798 3553 c7 -3 16 -2 19 1 4 3 -2 6 -13 5 -11 0 -14 -3 -6 -6z"/>
<path d="M9657 3543 c18 -2 50 -2 70 0 21 2 7 4 -32 4 -38 0 -55 -2 -38 -4z"/>
<path d="M7500 3449 c-89 -84 -222 -175 -322 -222 -40 -18 -84 -39 -98 -45
l-25 -12 25 6 c49 13 172 76 258 134 73 48 258 209 242 209 -3 0 -39 -32 -80
-70z"/>
<path d="M9992 3495 c0 -16 2 -22 5 -12 2 9 2 23 0 30 -3 6 -5 -1 -5 -18z"/>
<path d="M5675 3460 c10 -11 20 -20 23 -20 3 0 -3 9 -13 20 -10 11 -20 20 -23
20 -3 0 3 -9 13 -20z"/>
<path d="M10002 3435 c0 -16 2 -22 5 -12 2 9 2 23 0 30 -3 6 -5 -1 -5 -18z"/>
<path d="M5710 3437 c0 -2 15 -16 33 -33 l32 -29 -29 33 c-28 30 -36 37 -36
29z"/>
<path d="M10012 3375 c0 -16 2 -22 5 -12 2 9 2 23 0 30 -3 6 -5 -1 -5 -18z"/>
<path d="M5784 3372 c8 -13 66 -56 66 -49 0 3 -17 17 -37 33 -20 15 -33 23
-29 16z"/>
<path d="M9050 3351 c5 -11 15 -23 21 -27 6 -3 3 5 -6 20 -20 30 -30 35 -15 7z"/>
<path d="M10022 3315 c0 -16 2 -22 5 -12 2 9 2 23 0 30 -3 6 -5 -1 -5 -18z"/>
<path d="M9110 3276 c19 -21 49 -47 65 -58 35 -25 29 -18 -45 48 -44 39 -48
41 -20 10z"/>
<path d="M5905 3284 c24 -19 176 -97 180 -92 2 2 -42 27 -98 55 -56 29 -93 46
-82 37z"/>
<path d="M10032 3255 c0 -16 2 -22 5 -12 2 9 2 23 0 30 -3 6 -5 -1 -5 -18z"/>
<path d="M10041 3198 c0 -15 -9 -32 -18 -37 -10 -6 -13 -10 -8 -11 23 0 36 18
32 46 l-4 29 -2 -27z"/>
<path d="M9210 3194 c0 -18 208 -95 255 -93 11 0 -12 8 -50 18 -39 9 -101 31
-138 49 -37 17 -67 29 -67 26z"/>
<path d="M6110 3182 c8 -5 26 -13 40 -16 17 -5 20 -4 10 2 -8 5 -26 13 -40 16
-17 5 -20 4 -10 -2z"/>
<path d="M7000 3155 c-19 -7 -28 -14 -20 -14 8 0 29 6 45 14 39 17 21 18 -25
0z"/>
<path d="M6250 3134 c25 -8 63 -17 85 -19 22 -3 6 4 -35 14 -86 23 -116 26
-50 5z"/>
<path d="M9962 3143 c-7 -2 -52 -13 -100 -23 -48 -10 -76 -19 -63 -19 26 -1
201 38 201 45 0 5 -22 4 -38 -3z"/>
<path d="M6850 3120 c-47 -10 -75 -19 -63 -19 24 -1 164 27 172 34 7 7 -16 4
-109 -15z"/>
<path d="M6393 3103 c9 -2 25 -2 35 0 9 3 1 5 -18 5 -19 0 -27 -2 -17 -5z"/>
<path d="M6528 3093 c46 -2 118 -2 160 0 42 1 5 3 -83 3 -88 0 -123 -2 -77 -3z"/>
<path d="M9558 3093 c39 -2 105 -2 145 0 39 1 7 3 -73 3 -80 0 -112 -2 -72 -3z"/>
<path d="M6713 2333 c20 -2 54 -2 75 0 20 2 3 4 -38 4 -41 0 -58 -2 -37 -4z"/>
<path d="M10723 2333 c20 -2 54 -2 75 0 20 2 3 4 -38 4 -41 0 -58 -2 -37 -4z"/>
<path d="M13155 2335 c21 -7 179 -12 160 -4 -11 4 -54 8 -95 8 -41 -1 -70 -2
-65 -4z"/>
<path d="M16675 2335 c21 -7 179 -12 160 -4 -11 4 -54 8 -95 8 -41 -1 -70 -2
-65 -4z"/>
<path d="M18288 2333 c17 -2 47 -2 65 0 17 2 3 4 -33 4 -36 0 -50 -2 -32 -4z"/>
<path d="M6648 2323 c7 -3 16 -2 19 1 4 3 -2 6 -13 5 -11 0 -14 -3 -6 -6z"/>
<path d="M6838 2323 c7 -3 16 -2 19 1 4 3 -2 6 -13 5 -11 0 -14 -3 -6 -6z"/>
<path d="M10658 2323 c7 -3 16 -2 19 1 4 3 -2 6 -13 5 -11 0 -14 -3 -6 -6z"/>
<path d="M10848 2323 c7 -3 16 -2 19 1 4 3 -2 6 -13 5 -11 0 -14 -3 -6 -6z"/>
<path d="M13118 2323 c7 -3 16 -2 19 1 4 3 -2 6 -13 5 -11 0 -14 -3 -6 -6z"/>
<path d="M16070 2326 c0 -2 9 -6 20 -9 11 -3 18 -1 14 4 -5 9 -34 13 -34 5z"/>
<path d="M18228 2323 c7 -3 16 -2 19 1 4 3 -2 6 -13 5 -11 0 -14 -3 -6 -6z"/>
<path d="M18405 2320 c27 -12 43 -12 25 0 -8 5 -22 9 -30 9 -10 0 -8 -3 5 -9z"/>
<path d="M5362 1978 l3 -343 78 -3 77 -3 0 205 c0 112 3 211 6 220 3 9 1 16
-5 16 -8 0 -11 -64 -11 -215 l0 -215 -70 0 -71 0 3 340 c2 187 0 340 -5 340
-4 0 -6 -154 -5 -342z"/>
<path d="M6120 1980 l0 -340 -70 0 -70 0 0 222 c0 206 -6 247 -25 178 -5 -19
-4 -21 4 -10 8 11 11 -45 11 -192 l0 -208 80 0 80 0 0 345 c0 190 -2 345 -5
345 -3 0 -5 -153 -5 -340z"/>
<path d="M6588 2304 c-39 -21 -35 -28 5 -8 37 19 44 24 31 24 -5 -1 -21 -8
-36 -16z"/>
<path d="M7362 1978 l-2 -348 183 2 182 3 -177 2 -178 3 -3 343 -2 342 -3
-347z"/>
<path d="M7688 2313 c6 -2 18 -2 25 0 6 3 1 5 -13 5 -14 0 -19 -2 -12 -5z"/>
<path d="M8722 2048 l-2 -278 150 0 150 0 0 -65 0 -65 -225 -3 -225 -3 227 1
228 0 0 70 0 70 -147 3 -148 3 -3 272 -2 272 -3 -277z"/>
<path d="M9280 1975 l0 -345 238 2 237 3 0 70 0 70 -157 3 -158 3 0 64 0 65
140 0 140 0 -2 73 -2 72 -3 -67 -4 -67 -137 -3 -137 -3 0 -70 0 -70 158 -3
157 -3 0 -64 0 -65 -230 0 -231 0 3 340 c2 187 0 340 -4 340 -5 0 -8 -155 -8
-345z"/>
<path d="M11372 1978 l-2 -348 80 0 80 0 -2 348 -3 347 -2 -342 -3 -343 -70 0
-70 0 -3 343 -2 342 -3 -347z"/>
<path d="M13058 2304 c-39 -21 -35 -28 5 -8 37 19 44 24 31 24 -5 -1 -21 -8
-36 -16z"/>
<path d="M13350 2310 c8 -5 20 -10 25 -10 6 0 3 5 -5 10 -8 5 -19 10 -25 10
-5 0 -3 -5 5 -10z"/>
<path d="M13782 1978 l-2 -348 80 0 80 0 0 140 0 140 130 0 130 0 0 -140 0
-140 83 2 82 2 -77 3 -78 4 0 140 0 140 -137 -3 -138 -3 -3 -137 -3 -138 -69
0 -70 0 -3 343 -2 342 -3 -347z"/>
<path d="M13934 2185 c0 -77 2 -107 3 -67 2 40 2 103 0 140 -2 37 -3 4 -3 -73z"/>
<path d="M14204 2185 c0 -77 2 -107 3 -67 2 40 2 103 0 140 -2 37 -3 4 -3 -73z"/>
<path d="M14354 1985 c0 -187 2 -262 3 -167 2 95 2 248 0 340 -1 92 -3 14 -3
-173z"/>
<path d="M14846 2305 c-9 -26 -7 -32 5 -12 6 10 9 21 6 23 -2 3 -7 -2 -11 -11z"/>
<path d="M15670 2316 c0 -2 8 -10 18 -17 15 -13 16 -12 3 4 -13 16 -21 21 -21
13z"/>
<path d="M17342 1978 l-2 -348 238 2 237 3 -232 2 -233 3 -3 343 -2 342 -3
-347z"/>
<path d="M18174 2304 c-18 -14 -18 -14 6 -3 31 14 36 19 24 19 -6 0 -19 -7
-30 -16z"/>
<path d="M6901 2306 c2 -2 15 -9 29 -15 24 -11 24 -11 6 3 -16 13 -49 24 -35
12z"/>
<path d="M15948 2109 c-2 -111 0 -203 5 -206 4 -2 7 88 7 201 0 113 -2 206 -5
206 -2 0 -6 -90 -7 -201z"/>
<path d="M16564 2294 c-18 -14 -18 -14 6 -3 31 14 36 19 24 19 -6 0 -19 -7
-30 -16z"/>
<path d="M16890 2306 c0 -2 7 -7 16 -10 8 -3 12 -2 9 4 -6 10 -25 14 -25 6z"/>
<path d="M18450 2307 c0 -3 12 -12 26 -22 15 -9 23 -12 20 -6 -7 11 -46 35
-46 28z"/>
<path d="M5570 2295 c0 -5 5 -17 10 -25 5 -8 10 -10 10 -5 0 6 -5 17 -10 25
-5 8 -10 11 -10 5z"/>
<path d="M5901 2269 c-6 -18 -9 -34 -7 -36 2 -2 9 10 15 28 6 18 9 34 7 36 -2
2 -9 -10 -15 -28z"/>
<path d="M13390 2297 c0 -3 12 -12 26 -22 15 -9 23 -12 20 -6 -7 11 -46 35
-46 28z"/>
<path d="M11794 2155 c0 -77 2 -107 3 -67 2 40 2 103 0 140 -2 37 -3 4 -3 -73z"/>
<path d="M18119 2263 l-24 -28 28 24 c15 14 27 26 27 28 0 8 -8 1 -31 -24z"/>
<path d="M6980 2255 c13 -14 26 -25 28 -25 3 0 -5 11 -18 25 -13 14 -26 25
-28 25 -3 0 5 -11 18 -25z"/>
<path d="M7821 2255 c9 -11 21 -29 27 -40 6 -11 12 -14 12 -8 0 7 -12 25 -27
41 -16 15 -21 19 -12 7z"/>
<path d="M16103 2210 c0 -41 2 -58 4 -37 2 20 2 54 0 75 -2 20 -4 3 -4 -38z"/>
<path d="M10490 2224 c-65 -71 -93 -142 -94 -239 -1 -94 20 -165 64 -216 l31
-34 -31 45 c-89 134 -72 322 41 444 23 26 39 46 37 46 -3 0 -24 -21 -48 -46z"/>
<path d="M11010 2235 c19 -19 36 -35 39 -35 3 0 -10 16 -29 35 -19 19 -36 35
-39 35 -3 0 10 -16 29 -35z"/>
<path d="M14821 2239 c-6 -18 -9 -34 -7 -36 2 -2 9 10 15 28 6 18 9 34 7 36
-2 2 -9 -10 -15 -28z"/>
<path d="M16981 2245 c44 -50 62 -84 55 -102 -6 -15 -5 -16 6 -5 16 16 -10 68
-56 109 l-31 28 26 -30z"/>
<path d="M6489 2233 c-32 -36 -53 -63 -47 -63 2 0 21 20 41 45 42 49 45 61 6
18z"/>
<path d="M12959 2233 l-24 -28 28 24 c25 23 32 31 24 31 -2 0 -14 -12 -28 -27z"/>
<path d="M13485 2210 c47 -70 55 -77 25 -22 -13 23 -32 50 -43 60 -10 9 -2 -8
18 -38z"/>
<path d="M5590 2246 c0 -12 103 -266 107 -262 3 3 -95 256 -103 265 -2 2 -4 1
-4 -3z"/>
<path d="M18520 2246 c0 -2 8 -10 18 -17 15 -13 16 -12 3 4 -13 16 -21 21 -21
13z"/>
<path d="M8292 2215 c0 -16 2 -22 5 -12 2 9 2 23 0 30 -3 6 -5 -1 -5 -18z"/>
<path d="M18080 2209 c-6 -11 -10 -27 -8 -35 2 -8 8 1 14 20 12 40 10 46 -6
15z"/>
<path d="M5876 2205 c-9 -26 -7 -32 5 -12 6 10 9 21 6 23 -2 3 -7 -2 -11 -11z"/>
<path d="M7020 2216 c0 -2 8 -10 18 -17 15 -13 16 -12 3 4 -13 16 -21 21 -21
13z"/>
<path d="M8133 2145 c0 -44 2 -61 4 -37 2 23 2 59 0 80 -2 20 -4 1 -4 -43z"/>
<path d="M18550 2205 c0 -5 5 -17 10 -25 5 -8 10 -10 10 -5 0 6 -5 17 -10 25
-5 8 -10 11 -10 5z"/>
<path d="M6738 2193 c6 -2 18 -2 25 0 6 3 1 5 -13 5 -14 0 -19 -2 -12 -5z"/>
<path d="M10748 2193 c6 -2 18 -2 25 0 6 3 1 5 -13 5 -14 0 -19 -2 -12 -5z"/>
<path d="M13208 2193 c6 -2 18 -2 25 0 6 3 1 5 -13 5 -14 0 -19 -2 -12 -5z"/>
<path d="M16738 2193 c7 -3 16 -2 19 1 4 3 -2 6 -13 5 -11 0 -14 -3 -6 -6z"/>
<path d="M18350 2196 c0 -2 7 -7 16 -10 8 -3 12 -2 9 4 -6 10 -25 14 -25 6z"/>
<path d="M7538 2183 c6 -2 18 -2 25 0 6 3 1 5 -13 5 -14 0 -19 -2 -12 -5z"/>
<path d="M7863 2140 c0 -30 2 -43 4 -27 2 15 2 39 0 55 -2 15 -4 2 -4 -28z"/>
<path d="M9434 2176 c-3 -7 -4 -33 -1 -57 3 -44 4 -44 5 8 l2 52 158 4 157 3
-158 2 c-127 2 -159 -1 -163 -12z"/>
<path d="M14791 2159 c-6 -18 -9 -34 -7 -36 2 -2 9 10 15 28 6 18 9 34 7 36
-2 2 -9 -10 -15 -28z"/>
<path d="M17494 2176 c-3 -7 -3 -40 -1 -72 l3 -59 2 67 2 67 158 4 157 3 -158
2 c-125 2 -159 -1 -163 -12z"/>
<path d="M18239 2173 c-13 -16 -12 -17 4 -4 16 13 21 21 13 21 -2 0 -10 -8
-17 -17z"/>
<path d="M6655 2170 c-3 -6 1 -7 9 -4 18 7 21 14 7 14 -6 0 -13 -4 -16 -10z"/>
<path d="M7680 2176 c0 -2 8 -10 18 -17 15 -13 16 -12 3 4 -13 16 -21 21 -21
13z"/>
<path d="M13291 2177 c2 -1 13 -9 24 -17 19 -14 19 -14 6 3 -7 9 -18 17 -24
17 -6 0 -8 -1 -6 -3z"/>
<path d="M18407 2145 c9 -19 20 -35 25 -35 4 0 -2 16 -13 35 -12 19 -23 35
-25 35 -2 0 4 -16 13 -35z"/>
<path d="M5856 2155 c-9 -26 -7 -32 5 -12 6 10 9 21 6 23 -2 3 -7 -2 -11 -11z"/>
<path d="M16619 2153 c-13 -16 -12 -17 4 -4 16 13 21 21 13 21 -2 0 -10 -8
-17 -17z"/>
<path d="M6412 2123 c-12 -28 -17 -66 -17 -143 0 -121 16 -167 81 -240 39 -43
118 -100 138 -100 6 0 -12 13 -39 29 -63 36 -121 98 -148 160 -30 68 -35 198
-10 274 23 65 20 75 -5 20z"/>
<path d="M6608 2133 c-29 -32 -48 -66 -48 -85 1 -7 8 3 16 22 8 19 27 47 41
63 15 15 24 27 22 27 -3 0 -17 -12 -31 -27z"/>
<path d="M6894 2127 c16 -20 30 -37 33 -37 7 0 -36 58 -49 66 -7 4 1 -9 16
-29z"/>
<path d="M8293 2105 c0 -27 2 -38 4 -22 2 15 2 37 0 50 -2 12 -4 0 -4 -28z"/>
<path d="M10910 2121 c11 -16 27 -45 35 -63 8 -18 14 -26 15 -17 0 16 -55 109
-65 109 -4 0 3 -13 15 -29z"/>
<path d="M14930 2145 c1 -6 7 -21 16 -35 l15 -25 -7 25 c-7 26 -24 52 -24 35z"/>
<path d="M18061 2137 c-2 -37 21 -105 46 -133 l25 -29 -21 32 c-12 17 -27 57
-35 90 -8 32 -15 50 -15 40z"/>
<path d="M18220 2131 c0 -11 4 -22 9 -25 4 -3 6 6 3 19 -5 30 -12 33 -12 6z"/>
<path d="M7712 2120 c0 -14 2 -19 5 -12 2 6 2 18 0 25 -3 6 -5 1 -5 -13z"/>
<path d="M16406 2125 c-9 -26 -7 -32 5 -12 6 10 9 21 6 23 -2 3 -7 -2 -11 -11z"/>
<path d="M7080 2125 c0 -5 5 -17 10 -25 5 -8 10 -10 10 -5 0 6 -5 17 -10 25
-5 8 -10 11 -10 5z"/>
<path d="M13059 2113 c-13 -16 -12 -17 4 -4 16 13 21 21 13 21 -2 0 -10 -8
-17 -17z"/>
<path d="M16579 2113 c-13 -16 -12 -17 4 -4 16 13 21 21 13 21 -2 0 -10 -8
-17 -17z"/>
<path d="M16990 2120 c-8 -5 -10 -10 -5 -10 6 0 17 5 25 10 8 5 11 10 5 10 -5
0 -17 -5 -25 -10z"/>
<path d="M5836 2105 c-9 -26 -7 -32 5 -12 6 10 9 21 6 23 -2 3 -7 -2 -11 -11z"/>
<path d="M14751 2054 c-12 -31 -20 -58 -18 -61 2 -2 14 22 25 54 12 31 20 59
18 61 -2 2 -14 -22 -25 -54z"/>
<path d="M15512 2080 c0 -19 2 -27 5 -17 2 9 2 25 0 35 -3 9 -5 1 -5 -18z"/>
<path d="M13376 2088 c3 -4 11 -5 19 -1 21 7 19 12 -4 10 -11 0 -18 -5 -15 -9z"/>
<path d="M16910 2086 c4 -4 16 -4 26 2 16 9 14 10 -8 9 -15 -1 -23 -6 -18 -11z"/>
<path d="M13029 2063 c-5 -15 -9 -36 -7 -47 2 -11 8 1 14 27 12 52 9 61 -7 20z"/>
<path d="M16549 2063 c-5 -14 -9 -33 -7 -41 2 -9 8 3 14 26 13 47 9 56 -7 15z"/>
<path d="M18264 2076 c11 -9 27 -16 35 -15 14 0 14 1 1 6 -8 3 -24 10 -35 15
-20 9 -20 9 -1 -6z"/>
<path d="M6931 2075 c1 -19 18 -51 18 -35 0 8 -4 22 -9 30 -5 8 -9 11 -9 5z"/>
<path d="M5816 2055 c-9 -26 -7 -32 5 -12 6 10 9 21 6 23 -2 3 -7 -2 -11 -11z"/>
<path d="M7841 2047 c-13 -21 -12 -21 5 -5 10 10 16 20 13 22 -3 3 -11 -5 -18
-17z"/>
<path d="M11112 2050 c0 -14 2 -19 5 -12 2 6 2 18 0 25 -3 6 -5 1 -5 -13z"/>
<path d="M7547 2043 c18 -2 50 -2 70 0 21 2 7 4 -32 4 -38 0 -55 -2 -38 -4z"/>
<path d="M10561 2034 c0 -11 3 -14 6 -6 3 7 2 16 -1 19 -3 4 -6 -2 -5 -13z"/>
<path d="M12862 2030 c0 -14 2 -19 5 -12 2 6 2 18 0 25 -3 6 -5 1 -5 -13z"/>
<path d="M16103 2005 c0 -27 2 -38 4 -22 2 15 2 37 0 50 -2 12 -4 0 -4 -28z"/>
<path d="M16382 2030 c0 -14 2 -19 5 -12 2 6 2 18 0 25 -3 6 -5 1 -5 -13z"/>
<path d="M17772 1988 l-2 -67 -137 -3 -138 -3 0 -70 0 -70 155 0 155 -1 -152
3 -153 4 0 64 0 65 135 0 c105 0 137 3 141 14 3 7 3 40 1 72 l-3 59 -2 -67z"/>
<path d="M6553 1975 c0 -33 2 -45 4 -27 2 18 2 45 0 60 -2 15 -4 0 -4 -33z"/>
<path d="M7113 1980 c0 -30 2 -43 4 -27 2 15 2 39 0 55 -2 15 -4 2 -4 -28z"/>
<path d="M5781 1969 c-12 -29 -20 -54 -18 -56 2 -2 14 20 26 48 12 29 20 54
18 56 -2 2 -14 -20 -26 -48z"/>
<path d="M6952 1994 c-1 -17 -4 -47 -7 -65 l-5 -34 11 34 c5 18 8 47 6 65 l-4
31 -1 -31z"/>
<path d="M7796 2005 c-11 -8 -17 -17 -14 -20 2 -3 13 4 23 15 21 23 18 25 -9
5z"/>
<path d="M10963 1985 c0 -22 2 -30 4 -17 2 12 2 30 0 40 -3 9 -5 -1 -4 -23z"/>
<path d="M16883 2013 c31 -2 83 -2 115 0 31 2 5 3 -58 3 -63 0 -89 -1 -57 -3z"/>
<path d="M5917 1943 c-15 -37 -25 -68 -23 -70 2 -2 16 26 30 63 15 36 25 68
23 70 -2 2 -16 -26 -30 -63z"/>
<path d="M15900 1980 c12 -16 24 -30 26 -30 3 0 -4 14 -16 30 -12 17 -24 30
-26 30 -3 0 4 -13 16 -30z"/>
<path d="M16732 1948 l-2 -67 95 -3 c52 -2 95 0 95 5 0 4 -40 7 -90 7 l-89 0
-4 63 -3 62 -2 -67z"/>
<path d="M17062 1990 c0 -14 2 -19 5 -12 2 6 2 18 0 25 -3 6 -5 1 -5 -13z"/>
<path d="M18500 1997 c0 -2 15 -16 33 -33 l32 -29 -29 33 c-28 30 -36 37 -36
29z"/>
<path d="M13011 1974 c0 -11 3 -14 6 -6 3 7 2 16 -1 19 -3 4 -6 -2 -5 -13z"/>
<path d="M5550 1975 c0 -5 5 -17 10 -25 5 -8 10 -10 10 -5 0 6 -5 17 -10 25
-5 8 -10 11 -10 5z"/>
<path d="M7800 1976 c0 -2 7 -7 16 -10 8 -3 12 -2 9 4 -6 10 -25 14 -25 6z"/>
<path d="M14696 1909 c-15 -39 -25 -73 -23 -76 2 -2 16 29 31 69 14 39 24 73
22 75 -2 2 -15 -29 -30 -68z"/>
<path d="M5700 1965 c0 -5 5 -17 10 -25 5 -8 10 -10 10 -5 0 6 -5 17 -10 25
-5 8 -10 11 -10 5z"/>
<path d="M11792 1950 c0 -14 2 -19 5 -12 2 6 2 18 0 25 -3 6 -5 1 -5 -13z"/>
<path d="M15730 1966 c0 -2 8 -10 18 -17 15 -13 16 -12 3 4 -13 16 -21 21 -21
13z"/>
<path d="M8294 1850 c0 -63 1 -89 3 -57 2 31 2 83 0 115 -2 31 -3 5 -3 -58z"/>
<path d="M12862 1930 c0 -14 2 -19 5 -12 2 6 2 18 0 25 -3 6 -5 1 -5 -13z"/>
<path d="M13021 1936 c-1 -27 35 -100 61 -122 16 -14 15 -10 -6 18 -15 21 -34
57 -41 80 -8 24 -14 34 -14 24z"/>
<path d="M16382 1925 c0 -16 2 -22 5 -12 2 9 2 23 0 30 -3 6 -5 -1 -5 -18z"/>
<path d="M16541 1936 c-1 -29 35 -99 66 -127 23 -20 22 -18 -6 17 -18 23 -39
61 -46 85 -8 24 -14 35 -14 25z"/>
<path d="M10561 1924 c0 -11 3 -14 6 -6 3 7 2 16 -1 19 -3 4 -6 -2 -5 -13z"/>
<path d="M10951 1928 c0 -9 -4 -25 -7 -35 -5 -17 -5 -17 6 0 6 10 9 25 7 35
-4 15 -5 15 -6 0z"/>
<path d="M14857 1926 c-9 -23 2 -26 85 -26 68 0 78 2 77 18 0 10 -3 12 -6 5
-3 -9 -29 -13 -79 -13 -61 0 -72 3 -68 15 4 8 4 15 1 15 -3 0 -7 -6 -10 -14z"/>
<path d="M7866 1917 c3 -10 9 -15 12 -12 3 3 0 11 -7 18 -10 9 -11 8 -5 -6z"/>
<path d="M11111 1914 c0 -11 3 -14 6 -6 3 7 2 16 -1 19 -3 4 -6 -2 -5 -13z"/>
<path d="M5725 1898 c4 -13 11 -27 16 -33 5 -5 4 5 -2 23 -12 36 -24 44 -14
10z"/>
<path d="M18288 1913 c7 -3 16 -2 19 1 4 3 -2 6 -13 5 -11 0 -14 -3 -6 -6z"/>
<path d="M5586 1890 c3 -14 11 -32 16 -40 6 -10 7 -7 2 10 -3 14 -11 32 -16
40 -6 10 -7 7 -2 -10z"/>
<path d="M7101 1894 c0 -11 3 -14 6 -6 3 7 2 16 -1 19 -3 4 -6 -2 -5 -13z"/>
<path d="M7700 1906 c0 -2 8 -10 18 -17 15 -13 16 -12 3 4 -13 16 -21 21 -21
13z"/>
<path d="M8134 1825 c0 -49 1 -71 3 -48 2 23 2 64 0 90 -2 26 -3 8 -3 -42z"/>
<path d="M17064 1805 c0 -60 1 -84 3 -52 2 32 2 81 0 110 -2 29 -3 3 -3 -58z"/>
<path d="M10570 1894 c0 -6 7 -19 16 -30 14 -18 14 -18 3 6 -14 31 -19 36 -19
24z"/>
<path d="M6926 1873 c-6 -14 -5 -15 5 -6 7 7 10 15 7 18 -3 3 -9 -2 -12 -12z"/>
<path d="M7882 1870 c0 -14 2 -19 5 -12 2 6 2 18 0 25 -3 6 -5 1 -5 -13z"/>
<path d="M18401 1875 c9 -11 19 -27 22 -35 5 -13 6 -13 6 1 1 9 -9 24 -21 35
-23 19 -23 19 -7 -1z"/>
<path d="M7732 1845 c0 -16 2 -22 5 -12 2 9 2 23 0 30 -3 6 -5 -1 -5 -18z"/>
<path d="M10901 1827 c-29 -35 -30 -38 -7 -17 24 22 52 60 44 60 -2 0 -18 -19
-37 -43z"/>
<path d="M16103 1815 c0 -33 2 -45 4 -27 2 18 2 45 0 60 -2 15 -4 0 -4 -33z"/>
<path d="M18583 1835 c0 -22 2 -30 4 -17 2 12 2 30 0 40 -3 9 -5 -1 -4 -23z"/>
<path d="M5876 1845 c-9 -26 -7 -32 5 -12 6 10 9 21 6 23 -2 3 -7 -2 -11 -11z"/>
<path d="M18148 1853 c7 -3 16 -2 19 1 4 3 -2 6 -13 5 -11 0 -14 -3 -6 -6z"/>
<path d="M6884 1818 l-29 -33 33 29 c17 17 32 31 32 33 0 8 -8 1 -36 -29z"/>
<path d="M10615 1820 c10 -11 20 -20 23 -20 3 0 -3 9 -13 20 -10 11 -20 20
-23 20 -3 0 3 -9 13 -20z"/>
<path d="M13339 1813 l-24 -28 28 24 c15 14 27 26 27 28 0 8 -8 1 -31 -24z"/>
<path d="M18200 1833 c0 -6 9 -21 21 -34 l20 -24 -17 30 c-24 39 -24 40 -24
28z"/>
<path d="M5610 1825 c0 -5 5 -17 10 -25 5 -8 10 -10 10 -5 0 6 -5 17 -10 25
-5 8 -10 11 -10 5z"/>
<path d="M6600 1826 c0 -2 8 -10 18 -17 15 -13 16 -12 3 4 -13 16 -21 21 -21
13z"/>
<path d="M12890 1824 c0 -6 7 -19 16 -30 14 -18 14 -18 3 6 -14 31 -19 36 -19
24z"/>
<path d="M16410 1824 c0 -6 7 -19 16 -30 14 -18 14 -18 3 6 -14 31 -19 36 -19
24z"/>
<path d="M7066 1803 c-6 -14 -5 -15 5 -6 7 7 10 15 7 18 -3 3 -9 -2 -12 -12z"/>
<path d="M13515 1810 c3 -5 1 -20 -5 -32 -11 -22 -10 -22 4 -4 18 23 21 46 5
46 -5 0 -7 -4 -4 -10z"/>
<path d="M14656 1805 c-9 -26 -7 -32 5 -12 6 10 9 21 6 23 -2 3 -7 -2 -11 -11z"/>
<path d="M18417 1801 c-4 -17 -3 -21 5 -13 5 5 8 16 6 23 -3 8 -7 3 -11 -10z"/>
<path d="M5856 1795 c-9 -26 -7 -32 5 -12 6 10 9 21 6 23 -2 3 -7 -2 -11 -11z"/>
<path d="M7882 1790 c0 -14 2 -19 5 -12 2 6 2 18 0 25 -3 6 -5 1 -5 -13z"/>
<path d="M13124 1786 c11 -9 24 -16 30 -16 12 0 7 5 -24 19 -24 11 -24 11 -6
-3z"/>
<path d="M13290 1780 c-9 -6 -10 -10 -3 -10 6 0 15 5 18 10 8 12 4 12 -15 0z"/>
<path d="M18571 1774 c0 -11 3 -14 6 -6 3 7 2 16 -1 19 -3 4 -6 -2 -5 -13z"/>
<path d="M5636 1760 c3 -14 11 -32 16 -40 6 -10 7 -7 2 10 -3 14 -11 32 -16
40 -6 10 -7 7 -2 -10z"/>
<path d="M12100 1773 l150 -4 0 -65 0 -65 -230 3 c-126 2 -226 0 -221 -5 4 -4
108 -6 232 -5 l224 3 0 70 0 70 -153 0 -152 1 150 -3z"/>
<path d="M18060 1774 c0 -14 54 -90 72 -100 7 -4 3 4 -8 17 -12 13 -31 40 -43
59 -11 19 -21 30 -21 24z"/>
<path d="M18257 1769 c7 -7 15 -10 18 -7 3 3 -2 9 -12 12 -14 6 -15 5 -6 -5z"/>
<path d="M6733 1763 c15 -2 37 -2 50 0 12 2 0 4 -28 4 -27 0 -38 -2 -22 -4z"/>
<path d="M7558 1763 c23 -2 61 -2 85 0 23 2 4 4 -43 4 -47 0 -66 -2 -42 -4z"/>
<path d="M10733 1763 c15 -2 37 -2 50 0 12 2 0 4 -28 4 -27 0 -38 -2 -22 -4z"/>
<path d="M11034 1748 l-19 -23 23 19 c21 18 27 26 19 26 -2 0 -12 -10 -23 -22z"/>
<path d="M11793 1715 c0 -33 2 -45 4 -27 2 18 2 45 0 60 -2 15 -4 0 -4 -33z"/>
<path d="M12960 1728 c41 -45 50 -53 50 -45 0 2 -21 23 -47 47 l-48 45 45 -47z"/>
<path d="M13198 1763 c12 -2 32 -2 45 0 12 2 2 4 -23 4 -25 0 -35 -2 -22 -4z"/>
<path d="M14631 1739 c-6 -18 -9 -34 -7 -36 2 -2 9 10 15 28 6 18 9 34 7 36
-2 2 -9 -10 -15 -28z"/>
<path d="M14930 1763 c91 -3 137 -8 143 -16 6 -9 7 -8 4 3 -3 12 -28 15 -143
15 l-139 1 135 -3z"/>
<path d="M16440 1766 c0 -2 8 -10 18 -17 15 -13 16 -12 3 4 -13 16 -21 21 -21
13z"/>
<path d="M16718 1763 c18 -2 45 -2 60 0 15 2 0 4 -33 4 -33 0 -45 -2 -27 -4z"/>
<path d="M5831 1729 c-6 -18 -9 -34 -7 -36 2 -2 9 10 15 28 6 18 9 34 7 36 -2
2 -9 -10 -15 -28z"/>
<path d="M17811 1744 c0 -11 3 -14 6 -6 3 7 2 16 -1 19 -3 4 -6 -2 -5 -13z"/>
<path d="M18313 1753 c9 -2 23 -2 30 0 6 3 -1 5 -18 5 -16 0 -22 -2 -12 -5z"/>
<path d="M7014 1728 l-19 -23 23 19 c21 18 27 26 19 26 -2 0 -12 -10 -23 -22z"/>
<path d="M13459 1713 l-34 -38 38 34 c34 33 42 41 34 41 -2 0 -19 -17 -38 -37z"/>
<path d="M18519 1693 l-34 -38 38 34 c34 33 42 41 34 41 -2 0 -19 -17 -38 -37z"/>
<path d="M7820 1688 c-19 -16 -26 -26 -15 -20 18 9 64 53 54 52 -2 -1 -20 -15
-39 -32z"/>
<path d="M10525 1702 c11 -13 29 -28 40 -34 21 -11 18 -8 -30 32 -29 24 -29
24 -10 2z"/>
<path d="M10984 1698 l-19 -23 23 19 c21 18 27 26 19 26 -2 0 -12 -10 -23 -22z"/>
<path d="M16103 1685 c0 -22 2 -30 4 -17 2 12 2 30 0 40 -3 9 -5 -1 -4 -23z"/>
<path d="M16509 1696 c13 -16 51 -41 51 -33 0 2 -15 14 -32 27 -21 15 -28 17
-19 6z"/>
<path d="M5660 1695 c0 -5 5 -17 10 -25 5 -8 10 -10 10 -5 0 6 -5 17 -10 25
-5 8 -10 11 -10 5z"/>
<path d="M6950 1679 c-22 -18 -22 -19 -3 -10 12 6 25 16 28 21 9 15 3 12 -25
-11z"/>
<path d="M16909 1683 c-13 -16 -12 -17 4 -4 16 13 21 21 13 21 -2 0 -10 -8
-17 -17z"/>
<path d="M17811 1684 c0 -11 3 -14 6 -6 3 7 2 16 -1 19 -3 4 -6 -2 -5 -13z"/>
<path d="M5805 1660 c-6 -20 -13 -21 -66 -18 -32 1 -59 0 -59 -4 0 -5 27 -8
60 -8 50 0 61 3 70 21 7 11 9 23 7 26 -3 2 -8 -5 -12 -17z"/>
<path d="M10905 1654 c-27 -13 -44 -24 -37 -24 15 0 92 38 92 45 0 6 4 8 -55
-21z"/>
<path d="M13020 1675 c0 -7 61 -37 66 -33 2 3 -12 12 -31 21 -19 9 -35 15 -35
12z"/>
<path d="M17060 1657 c0 -13 -13 -17 -67 -20 l-68 -3 68 -2 c53 -2 69 1 74 13
3 9 3 19 -1 22 -3 4 -6 -1 -6 -10z"/>
<path d="M18150 1665 c0 -11 85 -45 110 -44 18 1 15 3 -13 10 -21 5 -51 16
-67 24 -17 9 -30 13 -30 10z"/>
<path d="M7745 1650 c-13 -6 -15 -9 -5 -9 8 0 22 4 30 9 18 12 2 12 -25 0z"/>
<path d="M14601 1647 c-1 -16 8 -18 81 -15 56 2 82 7 84 16 1 7 0 8 -3 2 -7
-15 -150 -13 -156 3 -3 7 -6 5 -6 -6z"/>
<path d="M15949 1648 c11 -15 27 -18 90 -16 l76 2 -75 3 c-41 2 -81 9 -90 16
-13 11 -13 10 -1 -5z"/>
<path d="M6840 1634 c-31 -8 -37 -13 -20 -13 14 0 39 6 55 14 37 17 24 16 -35
-1z"/>
<path d="M10636 1636 c17 -8 59 -17 95 -20 l64 -6 -75 14 c-41 8 -84 17 -95
20 -11 4 -6 0 11 -8z"/>
<path d="M13335 1640 c-13 -6 -15 -9 -5 -9 8 0 22 4 30 9 18 12 2 12 -25 0z"/>
<path d="M15190 1640 l-85 -6 88 -2 c52 -1 87 2 87 8 0 6 -1 9 -2 8 -2 -1 -41
-5 -88 -8z"/>
<path d="M16615 1635 c17 -8 41 -14 55 -14 15 0 5 6 -25 14 -62 17 -69 17 -30
0z"/>
<path d="M8178 1633 c23 -2 59 -2 80 0 20 2 1 4 -43 4 -44 0 -61 -2 -37 -4z"/>
<path d="M15558 1633 c23 -2 59 -2 80 0 20 2 1 4 -43 4 -44 0 -61 -2 -37 -4z"/>
<path d="M6685 1620 c31 -8 112 -13 104 -6 -2 2 -33 6 -69 9 -41 3 -54 2 -35
-3z"/>
<path d="M10818 1623 c6 -2 18 -2 25 0 6 3 1 5 -13 5 -14 0 -19 -2 -12 -5z"/>
<path d="M13138 1623 c6 -2 18 -2 25 0 6 3 1 5 -13 5 -14 0 -19 -2 -12 -5z"/>
<path d="M13278 1623 c6 -2 18 -2 25 0 6 3 1 5 -13 5 -14 0 -19 -2 -12 -5z"/>
<path d="M16778 1623 c6 -2 18 -2 25 0 6 3 1 5 -13 5 -14 0 -19 -2 -12 -5z"/>
<path d="M18373 1623 c9 -2 23 -2 30 0 6 3 -1 5 -18 5 -16 0 -22 -2 -12 -5z"/>
<path d="M13198 1613 c12 -2 32 -2 45 0 12 2 2 4 -23 4 -25 0 -35 -2 -22 -4z"/>
<path d="M16713 1613 c9 -2 25 -2 35 0 9 3 1 5 -18 5 -19 0 -27 -2 -17 -5z"/>
<path d="M18303 1613 c9 -2 25 -2 35 0 9 3 1 5 -18 5 -19 0 -27 -2 -17 -5z"/>
</g>
</g>
</svg>
